<svg xmlns="http://www.w3.org/2000/svg" viewBox="0 0 96.12 48.02"><defs><style>.cls-1{fill:#fff;}</style></defs><g id="Layer_2" data-name="Layer 2"><g id="bkg"><path class="cls-1" d="M25.66,4.19l-.54,2.4A1.23,1.23,0,0,1,24,7.06c-1.05,0-1.46-1-1.46-2.09,0-2,1.41-4.38,2.8-4.38a.84.84,0,0,1,.88.9c0,.32-.24,1-.56,1a1.2,1.2,0,0,0,.87.33c.65,0,.89-.49.89-1.17C27.46.47,26.28,0,25.1,0a4.62,4.62,0,0,0-4.47,4.87c0,1.74.66,3.24,2.72,3.24a4,4,0,0,0,1.54-.46l-.51,2.27c-.29,1.3-.69,1.55-1.26,1.55a.8.8,0,0,1-.8-.86.91.91,0,0,1,.89-1A1.06,1.06,0,0,1,24,10,2.06,2.06,0,0,0,24,9.47c0-.81-.73-.85-1.24-.85a1.61,1.61,0,0,0-1.54,1.74A1.67,1.67,0,0,0,23,12.1c2.07,0,2.82-1.21,3.24-3.15l1-4.75Z"/><path class="cls-1" d="M67.71,7.8c0-.71.61-2.24.61-3.26a1.28,1.28,0,0,0-1.41-1.43,1.87,1.87,0,0,0-1.48.71l.14-.66H63.75l-.93,4.42a2.6,2.6,0,0,1-1.91.92c-.61,0-.91-.2-.91-1.06,0-.16,0-.33,0-.51a2.93,2.93,0,0,0,2.91-2.67c0-.63-.27-1.21-1.39-1.21-2.59,0-3.42,3.05-3.42,4.5a2.72,2.72,0,0,0,0,.42.8.8,0,0,1-.68.36c-.38,0-.51-.21-.51-.53,0-.71.61-2.24.61-3.26a1.28,1.28,0,0,0-1.4-1.43,2,2,0,0,0-1.76,1.08,1.19,1.19,0,0,0-1.3-1.09,1.94,1.94,0,0,0-1.55.72l.14-.66H49.89L49,7.58a2.56,2.56,0,0,1-1.91.92c-.61,0-.91-.2-.91-1.06,0-.16,0-.33,0-.51a2.93,2.93,0,0,0,2.91-2.67c0-.63-.27-1.21-1.39-1.21-2.6,0-3.42,3.05-3.42,4.5,0,.14,0,.26,0,.39a1,1,0,0,1-.75.39c-.35,0-.51-.11-.51-.46a1.68,1.68,0,0,1,0-.41L44.53.63,42.66.88,41.31,7.22a6.26,6.26,0,0,0-.1.66,1,1,0,0,1-.79.45c-.35,0-.52-.11-.52-.46A1.68,1.68,0,0,1,40,7.46l.81-3.79h.76l.1-.51h-.76l.43-2-1.87.26L39,3.16h-.42l-.1.51h.42l-.76,3.55a4.68,4.68,0,0,0-.09.69.83.83,0,0,1-.72.42c-.38,0-.5-.21-.5-.53,0-.71.6-2.24.6-3.26a1.28,1.28,0,0,0-1.4-1.43,1.87,1.87,0,0,0-1.48.71l.14-.66H32.91L32,7.58a2.56,2.56,0,0,1-1.91.92c-.61,0-.91-.2-.91-1.06a4.63,4.63,0,0,1,0-.51,2.92,2.92,0,0,0,2.9-2.67c0-.63-.26-1.21-1.38-1.21-2.6,0-3.42,3.05-3.42,4.5a1.77,1.77,0,0,0,2,2,3.54,3.54,0,0,0,2.54-1.12l-.22,1h1.82l.86-4.06c.19-.63.53-1.16,1-1.16s.46.23.46.65c0,.81-.57,2.36-.57,3.22a1.34,1.34,0,0,0,1.49,1.43,1.9,1.9,0,0,0,1.58-.82,1.23,1.23,0,0,0,1.24.82,2.38,2.38,0,0,0,1.86-.89,1.23,1.23,0,0,0,1.27.89,2.39,2.39,0,0,0,1.91-1,1.76,1.76,0,0,0,1.77,1,3.46,3.46,0,0,0,2.53-1.12l-.22,1h1.82l.86-4.06c.19-.63.53-1.17,1-1.17.28,0,.37.28.37.56a1.55,1.55,0,0,1,0,.31l-.93,4.36H53.5l.86-4.06c.19-.63.53-1.16,1-1.16s.46.23.46.65c0,.81-.57,2.36-.57,3.22a1.34,1.34,0,0,0,1.49,1.43,1.92,1.92,0,0,0,1.64-.9,1.79,1.79,0,0,0,1.74.9,3.5,3.5,0,0,0,2.53-1.12l-.22,1h1.82l.86-4.06c.19-.63.53-1.16,1-1.16.3,0,.45.23.45.65,0,.81-.57,2.36-.57,3.22s.31,1.43,1.28,1.43a1.34,1.34,0,0,0,1.39-1.3.76.76,0,0,1-.41.07C67.84,8.33,67.71,8.12,67.71,7.8ZM61.64,3.72c.24,0,.32.2.32.52a2.11,2.11,0,0,1-1.84,2.08C60.38,5.07,61,3.72,61.64,3.72Zm-13.86,0c.24,0,.32.2.32.52a2.11,2.11,0,0,1-1.84,2.08C46.52,5.07,47.14,3.72,47.78,3.72Zm-17,0c.24,0,.32.2.32.52a2.11,2.11,0,0,1-1.83,2.08C29.53,5.07,30.15,3.72,30.79,3.72Z"/><polygon class="cls-1" points="70.44 0 69.67 2.39 70.62 2.39 71.77 0 70.44 0"/><path class="cls-1" d="M75.21,2.77,73.34,3a19.15,19.15,0,0,1-1.56,3.75,1.29,1.29,0,0,0-.67,1.17A1.66,1.66,0,0,0,73,9.56a2.29,2.29,0,0,0,2.53-2.19C75.49,6.54,75.36,6,75.21,2.77ZM72.55,8.56c-.55,0-.77-.29-.77-.88a.39.39,0,0,0,.34.16.61.61,0,0,0,.56-.62.48.48,0,0,0-.29-.44,14.07,14.07,0,0,0,1-2.39c.13,2,.24,2.34.24,3A1,1,0,0,1,72.55,8.56Z"/><path class="cls-1" d="M0,14.18H9.59c1.57,1.49,2.35,2.21,3.92,3.63,0,2.36,0,3.54,0,5.9-.77.89-1.16,1.34-1.93,2.25,1,.89,1.57,1.33,2.62,2.2,0,2.56,0,3.84,0,6.41-1.58,1.61-2.36,2.44-3.93,4.15-3.36.5-5,.78-8.38,1.39,0-8.67,0-13,0-21.67l1.33-.83v-.24L0,17.44ZM8.41,24.9c.74-.89,1.11-1.33,1.86-2.19,0-1.43,0-2.15,0-3.58-.82-.74-1.22-1.11-2-1.86l-3.16.06c0,3.12,0,4.68,0,7.8C6.41,25,7.08,25,8.41,24.9ZM5.06,36.42c1.54-.23,2.31-.34,3.85-.54.81-.88,1.22-1.32,2-2.17,0-1.57,0-2.35,0-3.92-.89-.74-1.34-1.11-2.23-1.87l-3.65.33C5.07,31.52,5.07,33.15,5.06,36.42Z"/><path class="cls-1" d="M18.8,14.14h8.25c1.53,9.06,2.3,13.51,3.83,22.35-1.29.08-1.94.13-3.24.24l-1-5.82c-2.19.13-3.29.21-5.48.38-.42,2.45-.63,3.68-1,6.15-1.29.14-1.94.21-3.23.37,1.32-8.09,2-12.07,3.3-19.9l1.33-.74V17l-2.73,0C18.79,15.85,18.79,15.28,18.8,14.14Zm5.47,2.78H23.6c-.79,4.57-1.19,6.87-2,11.52,1.82-.12,2.74-.18,4.57-.27C25.42,23.71,25,21.46,24.27,16.92Z"/><path class="cls-1" d="M37.26,36.14l-3.21.15.05-18.54,1.34-.69v-.21l-3.27,0c0-1.1,0-1.64,0-2.74h9.66l4,3.38c0,3,0,4.51,0,7.53-1.14,1-1.71,1.52-2.85,2.55l4.69,8.31c-1.42,0-2.12,0-3.53,0l-4.12-7.27-2.78.07C37.27,31.7,37.27,33.18,37.26,36.14Zm0-10.08L40.49,26l2.18-2c0-2.17,0-3.25,0-5.42l-2.14-1.77H37.3C37.29,20.53,37.29,22.38,37.28,26.06Z"/><path class="cls-1" d="M48.55,14.17h9.59c1.58,1.33,2.36,2,3.94,3.35,0,2.16,0,3.24,0,5.41l-1.93,1.9,2.64,2.26c0,2.37,0,3.56,0,5.93l-3.94,3.12c-3.39-.14-5.08-.19-8.47-.22V17.75l1.33-.67v-.2h-3.2ZM57,23.63l1.86-1.82c0-1.28,0-1.92,0-3.2l-2-1.72H53.65c0,2.68,0,4,0,6.71Zm-3.33,9.66c1.55,0,2.32.05,3.87.1l2-1.63V28.23l-2.26-1.9-3.66-.06C53.66,29.08,53.66,30.48,53.67,33.29Z"/><path class="cls-1" d="M76.37,24.52c0,1.14,0,1.7,0,2.84-2.37-.15-3.56-.22-5.94-.34,0,2.84,0,4.27,0,7.11,1.89.14,2.83.22,4.71.4,0-1,0-1.43,0-2.39l3.2.28c0,2.12,0,3.18,0,5.29C74,37.18,71.73,37,67.28,36.63c0-7.54,0-11.31-.07-18.85l1.33-.68v-.21l-3.19,0c0-1.09,0-1.63,0-2.72H78c0,2.23,0,3.34,0,5.57l-3.2-.09c0-1.06,0-1.6,0-2.66l-4.39-.05c0,2.94,0,4.41,0,7.35C72.81,24.35,74,24.4,76.37,24.52Z"/><path class="cls-1" d="M85.78,38.7c-1.27-.19-1.91-.28-3.18-.45,0-8.07,0-12.11-.07-20.18l1.33-.72v-.22l-3.26-.06c0-1.17,0-1.76,0-2.93h9.66c1.62,1.57,2.43,2.37,4,4,0,3.59,0,5.38,0,9-1.14,1.1-1.7,1.64-2.84,2.7,1.87,4.1,2.8,6.22,4.66,10.6l-3.49-.64c-1.64-3.74-2.46-5.55-4.1-9.09l-2.77-.28C85.77,33.74,85.77,35.4,85.78,38.7Zm0-11.24,3.19.26c.87-.82,1.3-1.23,2.17-2.08,0-2.52,0-3.78,0-6.31-.86-.85-1.29-1.28-2.15-2.11l-3.23-.06C85.73,21.28,85.74,23.34,85.75,27.46Z"/><path class="cls-1" d="M94.7,12.14H93.5v-1.2h1.2Zm-2.4,0H91.11v-1.2H92.3Zm-2.39,0h-1.2v-1.2h1.2Zm-2.4,0h-1.2v-1.2h1.2Zm-2.4,0h-1.2v-1.2h1.2Zm-2.4,0H81.52v-1.2h1.19Zm-2.39,0h-1.2v-1.2h1.2Zm-2.4,0h-1.2v-1.2h1.2Zm-2.4,0h-1.2v-1.2h1.2Zm-2.39,0h-1.2v-1.2h1.2Zm-2.4,0h-1.2v-1.2h1.2Zm-2.4,0h-1.2v-1.2h1.2Zm-2.4,0h-1.2v-1.2h1.2Zm-2.4,0H62.34v-1.2h1.19Zm-2.39,0h-1.2v-1.2h1.2Zm-2.4,0h-1.2v-1.2h1.2Zm-2.4,0h-1.2v-1.2h1.2Zm-2.39,0h-1.2v-1.2H54Zm-2.4,0h-1.2v-1.2h1.2Zm-2.4,0H48v-1.2h1.2Zm-2.4,0h-1.2v-1.2h1.2Zm-2.4,0H43.16v-1.2h1.19Zm-2.39,0h-1.2v-1.2H42Zm-2.4,0h-1.2v-1.2h1.2Zm-2.4,0H36v-1.2h1.2Zm-2.4,0h-1.2v-1.2h1.2Zm-2.39,0h-1.2v-1.2h1.2Zm-2.4,0h-1.2v-1.2H30Zm-2.4,0h-1.2v-1.2h1.2Zm-7.19,0h-1.2v-1.2h1.2Zm-2.4,0h-1.2v-1.2H18Zm-2.4,0h-1.2v-1.2h1.2Zm-2.39,0H12v-1.2h1.2Zm-2.4,0H9.59v-1.2h1.2Zm-2.4,0H7.19v-1.2h1.2Zm-2.4,0H4.79v-1.2H6Zm-2.39,0H2.4v-1.2H3.6Zm-2.4,0H0v-1.2H1.2Z"/><path class="cls-1" d="M30.92,46.79l.55-1a.28.28,0,0,1,.39-.07,3.57,3.57,0,0,0,1.67.64.73.73,0,0,0,.8-.7c0-.49-.41-.87-1.2-1.19-1-.39-2.27-1.18-2.27-2.58a2.43,2.43,0,0,1,2.7-2.33,4.37,4.37,0,0,1,2.51.88c.14.08.11.29.06.37l-.59.9c-.08.13-.29.24-.4.15a3.8,3.8,0,0,0-1.67-.7.68.68,0,0,0-.74.6c0,.43.35.76,1.27,1.13s2.37,1.08,2.37,2.67A2.57,2.57,0,0,1,33.61,48a3.79,3.79,0,0,1-2.64-.9C30.86,47,30.82,47,30.92,46.79Z"/><path class="cls-1" d="M39,39.93a.23.23,0,0,1,.23-.22h1.39a.22.22,0,0,1,.22.22v3h3.35v-3a.22.22,0,0,1,.22-.22h1.39a.22.22,0,0,1,.22.22v7.75a.23.23,0,0,1-.22.22H44.38a.22.22,0,0,1-.22-.22V44.6H40.81v3.08a.23.23,0,0,1-.22.22H39.2a.24.24,0,0,1-.23-.22Z"/><path class="cls-1" d="M52.79,39.59a4.22,4.22,0,1,1-4.2,4.22A4.2,4.2,0,0,1,52.79,39.59Zm0,6.55a2.34,2.34,0,1,0-2.33-2.33A2.34,2.34,0,0,0,52.79,46.14Z"/><path class="cls-1" d="M59.59,39.93a.22.22,0,0,1,.23-.22h2.82a2.61,2.61,0,1,1,0,5.22H61.42v2.75a.24.24,0,0,1-.22.22H59.82a.23.23,0,0,1-.23-.22Zm2.94,3.29a.92.92,0,0,0,.93-.93.89.89,0,0,0-.93-.86H61.42v1.79Z"/><path class="cls-1" d="M25.91,40.56a1.45,1.45,0,0,0-1.28,1.3c0,.81-1.58.85-1.89.85s-9.7.45-10.22.45-.68.27-.68.27.15.26.68.26,9.92.45,10.22.45,1.89,0,1.89.85a1.45,1.45,0,0,0,1.28,1.3,1.36,1.36,0,0,0,1.54-1.38A1.46,1.46,0,0,0,27,44a1.43,1.43,0,0,0-.59-.51h-.28a4.69,4.69,0,0,0-1.28.4s-1.09,0-1.8,0a1.1,1.1,0,0,1-.95-.39,1.09,1.09,0,0,1,.95-.4c.71,0,1.8-.05,1.8-.05a4.61,4.61,0,0,0,1.28.41h.28a2,2,0,0,0,1-1.45A1.37,1.37,0,0,0,25.91,40.56Zm.13,3.3A1.09,1.09,0,1,1,25,44.94,1.08,1.08,0,0,1,26,43.86Zm-4.7-.43a.2.2,0,0,1-.2.2.2.2,0,0,1-.21-.2.21.21,0,0,1,.21-.21A.2.2,0,0,1,21.34,43.43Zm5.78-1.52A1.08,1.08,0,1,1,26,40.83,1.08,1.08,0,0,1,27.12,41.91Z"/><path class="cls-1" d="M68.66,41.94a1.51,1.51,0,0,0,.41.94,1.68,1.68,0,0,0,.59.51h.28A4.59,4.59,0,0,0,71.23,43S72.32,43,73,43a1.07,1.07,0,0,1,1,.4,1.08,1.08,0,0,1-1,.39c-.7,0-1.79,0-1.79,0a4.67,4.67,0,0,0-1.29-.4h-.28a1.57,1.57,0,0,0-.59.51,1.46,1.46,0,0,0-.41.93,1.36,1.36,0,0,0,1.55,1.38A1.45,1.45,0,0,0,71.49,45c0-.81,1.58-.85,1.88-.85s9.7-.45,10.23-.45a.77.77,0,0,0,.68-.26.76.76,0,0,0-.68-.27c-.53,0-9.93-.45-10.23-.45s-1.88,0-1.88-.85a1.45,1.45,0,0,0-1.28-1.3A1.37,1.37,0,0,0,68.66,41.94Zm2.5,3a1.09,1.09,0,1,1-1.08-1.08A1.09,1.09,0,0,1,71.16,44.94ZM75,43.22a.2.2,0,0,1,.2.21.2.2,0,0,1-.2.2.2.2,0,0,1-.21-.2A.21.21,0,0,1,75,43.22Zm-4.9-2.39A1.08,1.08,0,1,1,69,41.91,1.08,1.08,0,0,1,70.08,40.83Z"/></g></g></svg>